<svg width="110" height="110" viewBox="0 0 110 110" fill="none" xmlns="http://www.w3.org/2000/svg">
<circle cx="55" cy="55" r="55" fill="#C1E4F5"/>
<mask id="mask0_40_477" style="mask-type:alpha" maskUnits="userSpaceOnUse" x="0" y="0" width="110" height="110">
<circle cx="55" cy="55" r="55" fill="#C1E4F5"/>
</mask>
<g mask="url(#mask0_40_477)">
<path d="M50.837 32C51.7084 32.1041 52.0102 32.392 52.6241 33.0209C52.7564 33.1952 52.8888 33.3695 53.0251 33.549C53.1347 33.6846 53.2444 33.8201 53.3573 33.9597C53.5388 33.9597 53.7202 33.9597 53.9072 33.9597C53.9072 34.0837 53.9072 34.2076 53.9072 34.3353C54.0282 34.3353 54.1491 34.3353 54.2738 34.3353C54.2738 34.1494 54.2738 33.9635 54.2738 33.772C54.6404 33.772 55.007 33.772 55.3736 33.772C55.434 34.0198 55.4945 34.2677 55.5568 34.523C55.761 34.4243 55.761 34.4243 55.9693 34.3235C56.5217 34.1306 56.6697 34.1634 57.2065 34.3353C57.8229 34.4054 58.2467 34.3002 58.8103 34.0654C59.6159 33.7359 60.3774 33.6373 61.239 33.5842C61.4431 33.5687 61.6473 33.5532 61.8576 33.5373C64.1833 33.7016 66.1639 34.7481 67.771 36.4505C68.0209 36.7761 68.0209 36.7761 68.0209 37.1517C68.1494 37.1671 68.278 37.1826 68.4104 37.1986C68.9374 37.3394 68.9374 37.3394 69.4872 37.7384C69.9865 38.1345 69.9865 38.1345 70.4409 38.0626C71.1267 37.8487 71.7383 37.5344 72.3741 37.1986C72.5039 37.131 72.6337 37.0635 72.7673 36.9939C73.8987 36.4017 75.0278 35.8088 76.0858 35.0863C76.693 35.0511 76.693 35.0511 77.3689 35.2741C78.5491 36.5626 78.8881 38.0347 78.8582 39.7686C78.8565 39.897 78.8549 40.0254 78.8532 40.1576C78.8489 40.47 78.8423 40.7823 78.8353 41.0946C78.5328 41.1566 78.2304 41.2185 77.9188 41.2824C77.9188 41.5302 77.9188 41.7781 77.9188 42.0334C77.6164 42.0334 77.3139 42.0334 77.0023 42.0334C77.0023 42.3432 77.0023 42.653 77.0023 42.9722C76.5789 42.9722 76.1555 42.9722 75.7193 42.9722C75.6777 43.1194 75.6361 43.2665 75.5932 43.4181C75.2907 44.038 75.0561 44.0643 74.4362 44.2865C74.3152 44.4724 74.1943 44.6583 74.0696 44.8498C74.1778 44.7996 74.2859 44.7494 74.3974 44.6977C74.8875 44.4704 75.3779 44.2435 75.8682 44.0166C76.0384 43.9376 76.2087 43.8586 76.3841 43.7771C76.5477 43.7015 76.7113 43.6259 76.8799 43.5479C77.0306 43.4781 77.1813 43.4083 77.3366 43.3364C78.6778 42.7432 79.9545 42.879 81.3226 43.3375C82.0506 43.6612 82.6433 44.1251 83.2343 44.662C83.3392 44.7564 83.4442 44.8508 83.5522 44.9481C83.7842 45.2253 83.7842 45.2253 83.7499 45.7182C83.6009 46.1641 83.6009 46.1641 83.2343 46.3519C82.9598 46.3697 82.6846 46.3763 82.4095 46.3753C82.264 46.3758 82.1184 46.3763 81.9685 46.3768C81.5847 46.3519 81.5847 46.3519 81.2181 46.1641C81.2332 46.381 81.2483 46.5978 81.2639 46.8213C81.2639 47.7009 81.0295 48.4778 80.4849 49.1683C80.363 49.1937 80.2411 49.2191 80.1155 49.2453C79.9954 49.2818 79.8754 49.3184 79.7517 49.356C79.6713 49.5775 79.6713 49.5775 79.5892 49.8034C79.3078 50.4812 78.9725 50.556 78.3198 50.8346C77.2766 51.328 76.8503 51.7372 76.2691 52.7357C75.9969 52.9216 75.997 52.9216 75.7193 53.1112C75.7797 53.2971 75.8402 53.483 75.9026 53.6745C76.5446 53.9966 76.5446 53.9966 77.1856 54.2378C77.1856 54.4237 77.1856 54.6095 77.1856 54.8011C77.4691 54.7836 77.4692 54.7836 77.7584 54.7659C78.5203 54.8036 78.9312 54.9447 79.5685 55.3643C79.6289 55.5502 79.6894 55.7361 79.7517 55.9276C80.1345 56.2011 80.1345 56.2011 80.588 56.4322C80.7395 56.5143 80.8909 56.5963 81.047 56.6809C81.1639 56.7421 81.2809 56.8033 81.4014 56.8664C81.4014 57.0523 81.4014 57.2382 81.4014 57.4297C81.7258 57.7331 81.7258 57.7331 82.1346 58.0047C82.547 58.2929 82.547 58.2929 82.8678 58.5563C82.8678 58.6802 82.8678 58.8041 82.8678 58.9318C82.6863 58.9937 82.5048 59.0557 82.3179 59.1195C82.3888 59.1948 82.4596 59.2701 82.5327 59.3476C83.2704 60.1725 83.8521 61.0346 84.1508 62.1237C83.9675 62.687 83.9675 62.687 83.6009 63.0625C83.7219 63.2484 83.8429 63.4342 83.9675 63.6258C83.9904 64.1304 83.9904 64.1304 83.9675 64.5646C83.8465 64.5646 83.7256 64.5646 83.6009 64.5646C83.6312 64.7504 83.6614 64.9363 83.6926 65.1278C83.7998 65.884 83.7973 66.6177 83.7842 67.381C83.6633 67.381 83.5423 67.381 83.4176 67.381C83.4479 67.5552 83.4781 67.7295 83.5093 67.909C83.6416 68.8519 83.6555 69.8103 83.6009 70.7606C83.5404 70.8226 83.4799 70.8845 83.4176 70.9484C83.4089 71.4778 83.4098 72.0035 83.4176 72.5326C83.4282 73.7724 83.3895 74.9739 83.2343 76.2057C82.9924 76.1437 82.7504 76.0817 82.5012 76.0179C82.5012 76.5755 82.5012 77.1332 82.5012 77.7077C82.3197 77.7077 82.1382 77.7077 81.9513 77.7077C81.9513 78.6371 81.9513 79.5666 81.9513 80.5241C81.7093 80.4002 81.4674 80.2763 81.2181 80.1486C81.2202 80.2917 81.2224 80.4347 81.2245 80.5821C81.2419 82.6181 81.0018 84.3768 80.4849 86.3447C80.243 86.4066 80.001 86.4686 79.7517 86.5324C79.7688 86.8055 79.7688 86.8055 79.7861 87.084C79.7883 88.1822 79.4247 89.1942 78.8353 90.0999C78.5174 90.3878 78.188 90.6561 77.8558 90.9264C77.5269 91.2514 77.3657 91.5504 77.1856 91.9775C77.3066 92.1633 77.4276 92.3492 77.5522 92.5407C77.8264 94.4302 78.2351 97.7189 77.3718 99.4805C76.914 100.422 76.8435 101.773 77.1419 102.771C77.3213 103.134 77.5178 103.467 77.7355 103.806C78.2291 104.646 78.3512 105.621 78.5442 106.569C78.7198 107.384 78.9413 107.979 79.3852 108.688C79.5366 109.092 79.6815 109.499 79.8205 109.909C80.1615 110.844 80.474 111.406 81.2181 112.068C81.4014 112.443 81.5847 112.819 81.768 113.194C82.0699 113.511 82.3748 113.824 82.6845 114.133C82.6845 114.257 82.6845 114.381 82.6845 114.509C82.8506 114.511 83.0167 114.514 83.1878 114.517C84.9174 114.586 86.0663 114.847 87.347 116.058C87.7378 116.762 87.8717 117.47 88 118.264C87.8185 118.326 87.6371 118.388 87.4501 118.452C87.3896 118.575 87.3291 118.699 87.2668 118.827C87.0854 118.827 86.9039 118.827 86.7169 118.827C86.6565 119.013 86.596 119.199 86.5336 119.39C84.4669 120.336 81.7174 120.207 79.5871 119.569C78.8828 119.243 78.5827 118.761 78.251 118.064C78.1879 117.934 78.1248 117.804 78.0598 117.67C77.9188 117.325 77.9188 117.325 77.9188 116.949C77.794 116.942 77.6693 116.934 77.5407 116.926C76.7705 116.691 76.2394 116.26 75.7193 115.635C75.5474 115.001 75.5474 115.001 75.536 114.509C75.415 114.509 75.294 114.509 75.1694 114.509C75.1694 114.323 75.1694 114.137 75.1694 113.945C75.0484 113.945 74.9274 113.945 74.8028 113.945C74.8028 113.759 74.8028 113.574 74.8028 113.382C74.6818 113.382 74.5608 113.382 74.4362 113.382C74.4362 113.258 74.4362 113.134 74.4362 113.007C74.319 112.987 74.2018 112.968 74.0811 112.948C73.8939 112.884 73.8939 112.884 73.703 112.819C73.6425 112.633 73.582 112.447 73.5197 112.256C73.3988 112.256 73.2778 112.256 73.1531 112.256C73.1531 112.07 73.1531 111.884 73.1531 111.692C73.0322 111.692 72.9112 111.692 72.7865 111.692C72.7865 111.568 72.7865 111.444 72.7865 111.317C72.6656 111.317 72.5446 111.317 72.42 111.317C72.3595 110.883 72.299 110.449 72.2367 110.002C72.1157 110.002 71.9947 110.002 71.8701 110.002C71.8096 109.755 71.7491 109.507 71.6868 109.251C71.5658 109.251 71.4448 109.251 71.3202 109.251C70.7104 107.772 70.1405 106.382 70.2204 104.745C70.1108 104.788 70.0012 104.83 69.8882 104.874C69.7559 104.894 69.6236 104.913 69.4872 104.933C69.2999 104.749 69.117 104.561 68.9374 104.37C68.3571 104.202 67.8979 104.182 67.2877 104.182C66.8791 104.096 66.5617 103.998 66.1879 103.806C66.2068 104.05 66.2257 104.294 66.2452 104.546C66.2558 104.683 66.2665 104.82 66.2774 104.961C66.3602 105.433 66.4795 105.826 66.6369 106.275C67.0149 107.397 67.1226 108.537 67.2541 109.711C67.4128 110.998 67.7424 111.943 68.5364 112.971C69.0532 113.655 69.5139 114.363 69.9648 115.094C70.2264 115.497 70.2264 115.497 70.7703 115.823C70.9599 116.195 71.1428 116.571 71.3202 116.949C71.6153 117.451 71.7613 117.664 72.3118 117.849C72.5525 117.886 72.5525 117.886 72.798 117.924C73.6834 118.066 73.6834 118.066 74.0696 118.264C74.1263 118.388 74.183 118.512 74.2414 118.639C74.4159 119.08 74.4159 119.08 74.9861 119.203C75.4531 120.028 75.6053 120.885 75.536 121.831C75.294 121.707 75.0521 121.583 74.8028 121.456C74.8028 121.58 74.8028 121.704 74.8028 121.831C74.6818 121.831 74.5608 121.831 74.4362 121.831C74.3152 122.141 74.1943 122.451 74.0696 122.77C73.9215 122.741 73.7733 122.711 73.6207 122.681C73.3269 122.626 73.3269 122.626 73.0271 122.571C72.8336 122.534 72.6401 122.496 72.4407 122.458C71.8744 122.395 71.5002 122.437 70.9536 122.582C70.6445 122.654 70.3352 122.724 70.0257 122.794C69.8723 122.829 69.719 122.864 69.561 122.901C69.0926 122.961 68.8383 122.895 68.3875 122.77C67.7347 122.727 67.0821 122.699 66.4285 122.672C65.8023 122.579 65.5281 122.476 65.0882 122.019C65.0882 121.895 65.0882 121.771 65.0882 121.643C64.9672 121.643 64.8462 121.643 64.7216 121.643C64.3018 120.998 64.3223 120.707 64.355 119.954C64.2113 119.896 64.0677 119.837 63.9197 119.778C63.4385 119.578 63.4385 119.578 63.0719 119.39C63.0719 118.952 63.0719 118.514 63.0719 118.076C63.0132 117.7 62.9523 117.325 62.8886 116.949C62.6467 116.949 62.4047 116.949 62.1555 116.949C62.1555 116.826 62.1555 116.702 62.1555 116.574C61.853 116.574 61.5506 116.574 61.239 116.574C61.118 115.954 60.997 115.335 60.8724 114.696C60.5095 114.572 60.1465 114.449 59.7726 114.321C59.7726 114.197 59.7726 114.073 59.7726 113.945C59.5307 113.945 59.2887 113.945 59.0394 113.945C58.8929 113.328 58.8384 113.061 59.0394 112.443C58.858 112.443 58.6765 112.443 58.4896 112.443C58.4291 112.195 58.3686 111.948 58.3063 111.692C58.1248 111.754 57.9433 111.816 57.7564 111.88C57.6959 111.694 57.6354 111.508 57.5731 111.317C57.3916 111.441 57.2102 111.565 57.0232 111.692C56.9703 111.572 56.9174 111.452 56.8628 111.328C56.6881 110.913 56.6881 110.913 56.29 110.753C56.29 110.877 56.29 111.001 56.29 111.129C56.169 111.129 56.0481 111.129 55.9234 111.129C55.9234 110.943 55.9234 110.757 55.9234 110.566C55.8025 110.566 55.6815 110.566 55.5568 110.566C55.5001 110.682 55.4434 110.798 55.385 110.918C55.259 111.176 55.133 111.434 55.007 111.692C54.6518 111.54 54.6518 111.54 54.2738 111.317C54.2133 111.131 54.1528 110.945 54.0905 110.753C53.9695 110.753 53.8485 110.753 53.7239 110.753C53.6634 111.063 53.6029 111.373 53.5406 111.692C52.831 111.585 52.4259 111.225 51.891 110.753C51.891 111.001 51.891 111.249 51.891 111.504C51.2796 111.296 51.041 111.04 50.6079 110.566C50.2354 111.205 50.1737 111.753 50.1267 112.49C50.113 112.693 50.0993 112.895 50.0852 113.103C50.0717 113.334 50.0717 113.334 50.058 113.57C49.4692 113.113 49.0206 112.681 48.5916 112.068C48.596 112.25 48.596 112.25 48.6004 112.435C48.6118 112.985 48.619 113.536 48.626 114.086C48.6306 114.277 48.6352 114.468 48.64 114.664C48.6426 114.94 48.6426 114.94 48.6453 115.222C48.6497 115.475 48.6497 115.475 48.6541 115.734C48.5802 116.284 48.3963 116.539 48.0418 116.949C47.8603 116.578 47.6788 116.206 47.4919 115.823C47.3104 116.133 47.129 116.443 46.942 116.762C46.5791 116.483 46.5791 116.483 46.2088 116.198C46.0274 116.508 45.8459 116.818 45.6589 117.137C45.538 117.013 45.417 116.889 45.2923 116.762C45.1109 117.01 44.9294 117.257 44.7425 117.513C44.6366 117.47 44.5308 117.428 44.4217 117.384C43.987 117.275 43.987 117.275 43.5969 117.595C43.491 117.692 43.3852 117.789 43.2761 117.888C43.0946 117.609 43.0946 117.609 42.9095 117.325C42.5431 117.261 42.1765 117.199 41.8097 117.137C41.4661 116.844 41.4661 116.844 41.2599 116.574C41.1994 116.822 41.1389 117.07 41.0766 117.325C40.7741 117.201 40.4717 117.077 40.1601 116.949C39.9181 117.259 39.6762 117.569 39.4269 117.888C39.5306 117.979 39.6344 118.069 39.7412 118.163C39.9429 118.34 39.9429 118.34 40.1486 118.522C40.2826 118.64 40.4166 118.757 40.5546 118.878C40.9277 119.236 41.0611 119.425 41.1138 119.945C41.1328 120.9 41.0878 121.59 40.5267 122.395C39.6612 123.013 38.9781 123.026 37.9606 122.958C37.7791 122.896 37.5976 122.834 37.4107 122.77C37.2897 122.832 37.1687 122.894 37.0441 122.958C36.5074 122.981 35.977 122.993 35.4403 122.993C35.2938 122.995 35.1473 122.998 34.9963 123C34.1216 123.002 33.4782 122.868 32.645 122.582C32.0275 122.514 31.4098 122.496 30.7892 122.477C30.4445 122.463 30.0999 122.45 29.7553 122.436C29.5073 122.426 29.5073 122.426 29.2544 122.416C28.5127 122.381 27.7751 122.311 27.0359 122.242C26.459 122.196 25.8915 122.193 25.3132 122.207C25.3737 122.083 25.4342 121.959 25.4965 121.831C25.2413 121.837 25.2413 121.837 24.981 121.843C24.3473 121.83 23.8949 121.66 23.297 121.456C23.3575 121.394 23.418 121.332 23.4803 121.268C23.2988 121.144 23.1174 121.02 22.9304 120.892C22.9909 120.769 23.0514 120.645 23.1137 120.517C22.9284 120.552 22.7432 120.587 22.5524 120.623C21.8345 120.704 21.2546 120.65 20.5476 120.517C20.6081 120.393 20.6685 120.269 20.7309 120.141C20.5499 120.112 20.3689 120.082 20.1824 120.051C19.9475 120.007 19.7127 119.964 19.4707 119.918C19.2368 119.877 19.0029 119.836 18.7619 119.793C18.1647 119.578 18.1647 119.578 17.907 119.115C17.8711 118.958 17.8351 118.801 17.7981 118.639C17.7603 118.496 17.7225 118.353 17.6836 118.205C17.6609 118.101 17.6382 117.996 17.6148 117.888C17.4939 117.888 17.3729 117.888 17.2483 117.888C17.3692 117.578 17.4902 117.269 17.6148 116.949C17.4939 116.949 17.3729 116.949 17.2483 116.949C17.0436 116.069 17.1005 115.534 17.4316 114.696C17.1896 114.696 16.9477 114.696 16.6984 114.696C16.7778 114.54 16.7778 114.54 16.8588 114.38C17.0725 113.929 17.2545 113.473 17.4316 113.007C17.0686 113.069 16.7057 113.13 16.3318 113.194C16.4452 113.028 16.5586 112.861 16.6755 112.69C17.0015 112.169 17.2319 111.708 17.4316 111.129C17.3106 111.129 17.1896 111.129 17.065 111.129C17.1255 110.695 17.1859 110.261 17.2483 109.815C17.1348 109.96 17.1348 109.96 17.0191 110.108C16.9133 110.197 16.8074 110.286 16.6984 110.378C16.2974 110.319 16.2974 110.319 15.9652 110.19C15.9652 109.942 15.9652 109.694 15.9652 109.439C15.6628 109.563 15.3603 109.687 15.0487 109.815C14.688 109.445 14.744 108.81 14.6821 108.313C14.5612 108.375 14.4402 108.436 14.3155 108.5C14.2817 106.337 14.2817 106.337 14.4988 105.308C14.3779 105.308 14.2569 105.308 14.1323 105.308C14.1323 105.432 14.1323 105.556 14.1323 105.684C14.0113 105.684 13.8903 105.684 13.7657 105.684C13.7657 105.002 13.7657 104.321 13.7657 103.619C13.5237 103.742 13.2818 103.866 13.0325 103.994C13.0325 103.622 13.0325 103.251 13.0325 102.868C12.73 103.053 12.4276 103.239 12.116 103.431C12.1113 103.32 12.1066 103.209 12.1017 103.094C12.032 102.1 11.9133 101.533 11.1995 100.802C11.0786 100.678 10.9576 100.554 10.8329 100.427C10.9501 100.345 11.0673 100.264 11.1881 100.18C11.6151 99.8798 11.6151 99.8798 11.7494 99.3001C11.3865 99.2381 11.0236 99.1762 10.6497 99.1123C10.7101 98.8025 10.7706 98.4927 10.8329 98.1735C10.9539 98.1735 11.0749 98.1735 11.1995 98.1735C11.1995 98.0496 11.1995 97.9257 11.1995 97.798C10.7156 97.798 10.2317 97.798 9.73318 97.798C10.0961 97.2404 10.459 96.6827 10.8329 96.1082C10.5305 95.9843 10.2281 95.8603 9.91647 95.7327C9.56054 95.3852 9.29954 95.0094 9 94.6061C9.60487 94.73 10.2097 94.8539 10.8329 94.9816C10.6345 94.7816 10.6345 94.7816 10.432 94.5775C10.2619 94.4049 10.0917 94.2324 9.91647 94.0546C9.74635 93.8825 9.57623 93.7104 9.40096 93.5331C9 93.104 9 93.104 9 92.9163C9.48879 92.9163 9.97757 92.9163 10.4664 92.9163C10.3454 92.8001 10.2244 92.6839 10.0998 92.5642C9.73318 92.1652 9.73318 92.1652 9.73318 91.7897C10.5698 91.8917 11.1946 92.1267 11.9327 92.5407C11.8117 92.3626 11.6908 92.1845 11.5661 92.0009C11.1995 91.4142 11.1995 91.4142 11.1995 91.0387C11.502 90.9767 11.8044 90.9147 12.116 90.8509C12.116 90.727 12.116 90.6031 12.116 90.4754C11.9345 90.3515 11.7531 90.2275 11.5661 90.0999C11.5661 89.9759 11.5661 89.852 11.5661 89.7243C11.7476 89.6624 11.929 89.6004 12.116 89.5366C11.995 89.4204 11.8741 89.3042 11.7494 89.1845C11.3828 88.7855 11.3828 88.7855 11.3828 88.41C11.5643 88.3481 11.7458 88.2861 11.9327 88.2223C11.8722 88.0984 11.8117 87.9744 11.7494 87.8468C12.2938 87.9707 12.8382 88.0946 13.3991 88.2223C13.3083 87.8505 13.3083 87.8505 13.2158 87.4712C13.4577 87.5332 13.6997 87.5952 13.949 87.659C13.8582 87.4809 13.7675 87.3027 13.674 87.1192C13.3991 86.5324 13.3991 86.5324 13.3991 86.1569C13.949 86.3447 14.4988 86.5324 15.0487 86.7202C14.9277 86.4104 14.8068 86.1006 14.6821 85.7814C14.8031 85.7194 14.9241 85.6575 15.0487 85.5936C15.0487 85.4697 15.0487 85.3458 15.0487 85.2181C15.4721 85.342 15.8955 85.466 16.3318 85.5936C16.2108 85.4078 16.0898 85.2219 15.9652 85.0304C15.9652 84.8445 15.9652 84.6586 15.9652 84.4671C16.6656 84.5667 17.0763 84.7482 17.6148 85.2181C17.6753 84.9083 17.7358 84.5985 17.7981 84.2793C18.0401 84.3413 18.282 84.4032 18.5313 84.4671C18.5918 84.1573 18.6523 83.8475 18.7146 83.5283C19.0171 83.5902 19.3195 83.6522 19.6311 83.716C19.6916 83.5302 19.7521 83.3443 19.8144 83.1528C20.1773 83.2147 20.5402 83.2767 20.9142 83.3405C20.9142 83.2166 20.9142 83.0927 20.9142 82.965C21.0805 82.9727 21.2468 82.9805 21.4182 82.9885C21.9984 83.0109 21.9984 83.0109 22.392 82.7538C22.7471 82.5895 22.7471 82.5895 23.2053 82.7538C23.3566 82.8235 23.5078 82.8932 23.6636 82.965C23.9055 82.965 24.1475 82.965 24.3968 82.965C24.3968 82.8411 24.3968 82.7172 24.3968 82.5895C24.6992 82.4656 25.0016 82.3416 25.3132 82.214C25.404 82.8645 25.404 82.8646 25.4965 83.5283C25.8594 83.2185 26.2224 82.9087 26.5963 82.5895C26.7173 82.8373 26.8382 83.0852 26.9629 83.3405C27.2653 83.2166 27.5677 83.0927 27.8794 82.965C28.0608 83.2438 28.0608 83.2438 28.2459 83.5283C29.7583 83.4407 29.7583 83.4407 31.1787 82.965C31.5781 82.4294 31.5781 82.4294 31.9118 81.8384C32.3013 81.3925 32.3013 81.3925 32.645 81.0874C32.766 81.0874 32.887 81.0874 33.0116 81.0874C33.0003 80.9596 32.9889 80.8318 32.9772 80.7002C33.0223 79.9772 33.2323 79.4727 33.5615 78.8343C33.8044 78.7061 34.0487 78.5807 34.2947 78.4588C34.5315 77.8876 34.5315 77.8876 34.6613 77.3322C34.8427 77.3322 35.0242 77.3322 35.2111 77.3322C35.2716 76.9604 35.3321 76.5887 35.3944 76.2057C35.7574 76.2057 36.1203 76.2057 36.4942 76.2057C36.4566 76.1038 36.4191 76.0019 36.3804 75.8969C36.331 75.7626 36.2816 75.6282 36.2307 75.4898C36.1818 75.3569 36.1329 75.2241 36.0825 75.0872C35.8496 74.4408 35.7399 73.9468 35.7496 73.2602C35.7512 73.1084 35.7529 72.9567 35.7546 72.8003C35.7578 72.6271 35.7578 72.6271 35.761 72.4505C36.1239 72.4505 36.4869 72.4505 36.8608 72.4505C36.8003 71.9548 36.7398 71.4591 36.6775 70.9484C36.7985 70.8864 36.9194 70.8245 37.0441 70.7606C37.0441 70.2649 37.0441 69.7693 37.0441 69.2585C37.2255 69.2585 37.407 69.2585 37.594 69.2585C37.594 68.8868 37.594 68.515 37.594 68.132C37.8359 68.132 38.0779 68.132 38.3271 68.132C38.3876 67.7602 38.4481 67.3885 38.5104 67.0054C38.7524 67.0054 38.9943 67.0054 39.2436 67.0054C39.2833 66.7382 39.2833 66.7382 39.3238 66.4656C39.4269 65.8789 39.4269 65.8789 39.6102 65.5034C39.7312 65.5034 39.8522 65.5034 39.9768 65.5034C39.9272 65.0458 39.9272 65.0458 39.7935 64.5646C39.612 64.4406 39.4306 64.3167 39.2436 64.189C39.2436 64.0651 39.2436 63.9412 39.2436 63.8135C39.4856 63.8755 39.7275 63.9374 39.9768 64.0013C39.7953 63.1648 39.7953 63.1648 39.6102 62.3114C40.0336 62.2495 40.457 62.1875 40.8933 62.1237C41.1309 61.2413 41.0646 60.7106 40.71 59.8706C40.9519 59.8086 41.1939 59.7466 41.4432 59.6828C41.3524 59.5047 41.2617 59.3265 41.1682 59.143C40.8933 58.5563 40.8933 58.5563 40.8933 58.1807C41.0142 58.1188 41.1352 58.0568 41.2599 57.993C41.3345 57.5571 41.3963 57.1186 41.4432 56.6787C41.6246 56.6787 41.8061 56.6787 41.993 56.6787C41.993 56.4308 41.993 56.183 41.993 55.9276C42.1102 55.8811 42.2274 55.8347 42.3482 55.7868C42.7606 55.5867 42.7606 55.5867 42.8637 55.1531C42.8788 55.0369 42.8939 54.9208 42.9095 54.8011C42.3651 54.894 42.3651 54.894 41.8097 54.9888C42.0445 54.6682 42.2896 54.3554 42.5429 54.05C42.6639 54.05 42.7849 54.05 42.9095 54.05C43.0305 53.6783 43.1515 53.3065 43.2761 52.9235C43.1551 52.8615 43.0342 52.7995 42.9095 52.7357C43.2724 52.302 43.6354 51.8683 44.0093 51.4214C43.5859 51.4214 43.1625 51.4214 42.7262 51.4214C43.4594 49.9193 43.4594 49.9193 43.7458 49.3678C43.9838 48.8484 44.1116 48.4178 44.1926 47.854C44.374 47.854 44.5555 47.854 44.7425 47.854C44.7425 47.2963 44.7425 46.7387 44.7425 46.1641C44.9239 46.1641 45.1054 46.1641 45.2923 46.1641C45.3528 45.7304 45.4133 45.2967 45.4756 44.8498C45.6571 44.8498 45.8386 44.8498 46.0255 44.8498C46.0539 44.5419 46.0539 44.5419 46.0828 44.2278C46.2039 43.5626 46.246 43.3604 46.7587 42.9722C46.6377 42.9722 46.5168 42.9722 46.3921 42.9722C46.3921 42.8483 46.3921 42.7244 46.3921 42.5967C46.5131 42.5967 46.6341 42.5967 46.7587 42.5967C46.5772 42.3295 46.5772 42.3295 46.3921 42.0569C46.0255 41.4701 46.0255 41.4701 46.0255 41.0946C46.2675 41.0946 46.5094 41.0946 46.7587 41.0946C46.6944 40.9668 46.6302 40.839 46.5639 40.7074C46.3506 40.0227 46.4419 39.539 46.5754 38.8415C46.6964 38.8415 46.8174 38.8415 46.942 38.8415C46.9377 38.6641 46.9377 38.6641 46.9333 38.4832C46.9218 37.9416 46.9147 37.4 46.9076 36.8583C46.903 36.6723 46.8984 36.4863 46.8937 36.2946C46.8805 34.9451 46.9822 33.9782 47.8928 32.9388C48.0025 32.842 48.1121 32.7452 48.2251 32.6454C48.709 32.8933 49.1929 33.1411 49.6914 33.3965C49.7254 33.1757 49.7254 33.1757 49.7602 32.9505C49.9321 32.2107 50.1028 32.1012 50.837 32Z" fill="#2D3748"/>
<path d="M38.3919 33C38.8573 33.1575 38.8945 33.212 39.1107 33.6252C39.5116 34.4924 39.4914 35.4194 39.5079 36.3552C39.5106 36.4856 39.5134 36.6159 39.5162 36.7502C39.5248 37.1646 39.5326 37.5789 39.5404 37.9933C39.5461 38.275 39.5519 38.5568 39.5577 38.8385C39.5718 39.5274 39.5853 40.2164 39.5983 40.9053C40.3199 40.6235 40.3199 40.6235 40.9121 40.1485C41.39 39.7172 41.9234 39.47 42.5069 39.2107C42.5963 39.1699 42.6858 39.129 42.778 39.087C43.3666 38.8352 43.8386 38.7448 44.49 38.7994C44.5337 38.8429 44.5773 38.8863 44.6222 38.931C44.568 39.6825 44.4047 40.2976 44.1099 40.9876C44.076 41.0704 44.0421 41.1532 44.0071 41.2385C43.8456 41.628 43.6734 42.0014 43.4726 42.3726C43.2887 42.7729 43.2003 42.9759 43.3001 43.4061C43.6309 43.6974 43.6309 43.6974 44.0686 43.949C45.6453 44.962 47.4076 46.5592 47.8676 48.4399C47.9935 49.0792 48.0729 49.7171 48.1382 50.3651C48.3615 52.4627 49.4449 54.2062 50.4575 56.0213C50.9327 56.8906 51.3425 57.6696 51.1005 58.6738C50.7776 59.5583 50.076 60.042 49.3498 60.6002C48.9893 60.9077 48.7401 61.2113 48.4646 61.594C47.8238 62.4437 46.9374 62.8192 45.9443 63.1488C45.7127 63.1611 45.4806 63.166 45.2487 63.1662C45.1116 63.1664 44.9745 63.1666 44.8332 63.1668C44.69 63.1663 44.5467 63.1657 44.3991 63.1652C44.2584 63.1657 44.1178 63.1662 43.9728 63.1668C43.2071 63.1658 42.4707 63.132 41.7136 63.0171C41.607 64.6873 42.0946 66.275 42.5374 67.8675C42.7695 68.7305 42.8819 69.5747 42.9495 70.4644C43.126 71.3851 43.8112 71.9947 44.4404 72.6499C44.6066 72.8258 44.7727 73.0016 44.9388 73.1774C45.2207 73.4743 45.504 73.7698 45.7889 74.0638C47.618 75.9905 48.4188 78.0124 49.0413 80.5551C49.657 83.0567 50.6034 85.112 52.022 87.2678C55.8986 93.1735 55.8986 93.1735 55.9559 96.5119C55.9646 97.0108 56.0066 97.4548 56.1276 97.9396C56.3837 99.1229 56.2663 100.376 56.2413 101.579C56.2156 102.913 56.2215 104.118 56.6533 105.398C56.6946 105.527 56.7359 105.656 56.7784 105.788C56.9131 106.198 57.0547 106.604 57.1987 107.01C57.2503 107.158 57.3019 107.306 57.3551 107.458C57.6603 108.324 57.9802 109.184 58.3116 110.041C58.7598 111.201 59.1666 112.359 59.4958 113.558C59.528 113.676 59.5601 113.793 59.5933 113.913C59.9372 115.22 59.9861 116.464 59.9916 117.811C59.9957 118.059 59.9957 118.059 59.9999 118.312C60.0065 119.888 59.7661 121.13 58.7687 122.377C58.7083 122.456 58.648 122.536 58.5858 122.618C57.8928 123.418 56.9104 123.792 55.9699 124.233C55.6694 124.38 55.3854 124.548 55.0998 124.721C51.3595 126.787 45.8532 125.867 41.8086 125.282C40.3515 125.074 38.888 124.917 37.425 124.756C37.0841 124.719 36.7433 124.681 36.4025 124.642C36.2928 124.63 36.1831 124.617 36.07 124.605C35.4392 124.531 34.8167 124.436 34.192 124.321C32.8923 124.083 31.6459 124.045 30.3271 124.071C29.9273 124.078 29.5276 124.083 29.1279 124.087C29.0306 124.088 28.9333 124.089 28.8331 124.09C27.9923 124.097 27.1613 124.043 26.3231 123.983C25.8057 123.954 25.2997 123.963 24.7825 123.985C22.9984 124.056 22.9984 124.056 22.221 123.392C21.4902 122.594 21.3116 121.925 21.3239 120.875C21.3898 120.113 21.6098 119.367 21.8553 118.645C22.0687 118.015 22.1733 117.429 22.2277 116.769C22.3671 115.101 22.9702 114.225 24.0285 112.943C25.4483 111.085 24.8037 107.812 24.5264 105.661C24.4199 105.061 24.2757 104.476 24.1168 103.888C23.9973 103.423 23.9248 102.978 23.8653 102.503C23.745 102.49 23.745 102.49 23.6223 102.478C23.3365 102.371 23.3365 102.371 23.1555 102.089C23.1024 101.967 23.0493 101.844 22.9946 101.717C22.9347 101.58 22.8748 101.444 22.8131 101.303C22.7513 101.156 22.6895 101.009 22.6259 100.857C22.5615 100.707 22.4971 100.557 22.4308 100.403C21.755 98.8107 21.1758 97.2206 20.7253 95.5515C20.699 95.454 20.6727 95.3566 20.6456 95.2562C20.5672 94.9526 20.4959 94.6483 20.4279 94.3423C20.403 94.2318 20.3781 94.1214 20.3524 94.0076C20.0783 92.6166 20.1162 91.2018 20.1131 89.7898C20.1062 87.9442 19.8909 86.3969 18.9901 84.7506C18.0825 83.0172 17.341 81.1942 16.9987 79.2638C16.9769 79.1429 16.9551 79.022 16.9327 78.8975C16.4421 76.0684 16.0534 73.1685 16.0154 70.2973C16.0104 70.1582 16.0055 70.0192 16.0004 69.8759C15.9803 68.0233 16.7359 66.3423 17.4425 64.6608C17.6336 64.2055 17.8214 63.7488 18.0094 63.2922C18.0655 63.156 18.0655 63.156 18.1227 63.0171C18.4618 62.1916 18.7841 61.3602 19.0975 60.5246C19.1458 60.3962 19.1941 60.2678 19.2439 60.1355C19.4481 59.5876 19.647 59.0395 19.8278 58.4835C20.4647 56.5385 21.4148 54.6919 22.5374 52.9789C22.8384 52.4818 23.0247 51.9467 23.133 51.3777C23.8534 47.714 26.9529 43.7568 29.8809 41.5634C30.7076 40.9406 31.4447 40.2439 32.178 39.5151C32.2817 39.4125 32.3854 39.31 32.4923 39.2043C33.1095 38.5825 33.6706 37.9355 34.2118 37.2473C34.4732 36.9175 34.75 36.6065 35.037 36.2987C35.525 35.7663 35.9783 35.2148 36.4268 34.6493C37.7499 33.0139 37.7499 33.0139 38.3919 33Z" fill="#2578A1"/>
</g>
</svg>
