<svg width="144" height="158" viewBox="0 0 144 158" fill="none" xmlns="http://www.w3.org/2000/svg">
<path d="M66.3036 99.498C66.5759 102.131 68.7986 104.091 71.3885 104.091C71.5645 104.091 71.742 104.082 71.9208 104.064C74.7324 103.773 76.7763 101.258 76.4856 98.4464L74.125 75.6066C73.8343 72.7949 71.3182 70.7537 68.5079 71.0417C65.6962 71.3325 63.6524 73.8472 63.9431 76.6589L66.3036 99.498Z" fill="#A0AEC0"/>
<path d="M98.3348 104.064C98.5135 104.082 98.691 104.091 98.8671 104.091C101.458 104.091 103.68 102.131 103.952 99.4981L106.312 76.6583C106.602 73.8459 104.559 71.3312 101.747 71.0411C98.9332 70.7538 96.4198 72.795 96.1291 75.606L93.7692 98.4458C93.4785 101.258 95.5224 103.773 98.3348 104.064Z" fill="#A0AEC0"/>
<path d="M58.7036 126.311C49.9677 126.311 42.8608 133.418 42.8608 142.154C42.8608 150.892 49.9677 158.001 58.7036 158.001C67.4395 158.001 74.5471 150.892 74.5471 142.154C74.5471 133.418 67.4395 126.311 58.7036 126.311ZM58.7036 147.763C55.6122 147.763 53.0974 145.247 53.0974 142.153C53.0974 139.062 55.6122 136.547 58.7036 136.547C61.7951 136.547 64.3105 139.062 64.3105 142.153C64.3105 145.247 61.7951 147.763 58.7036 147.763Z" fill="#A0AEC0"/>
<path d="M111.552 126.311C102.816 126.311 95.7085 133.418 95.7085 142.154C95.7085 150.892 102.815 158.001 111.552 158.001C120.289 158.001 127.397 150.892 127.397 142.154C127.397 133.418 120.289 126.311 111.552 126.311ZM111.552 147.763C108.461 147.763 105.945 145.247 105.945 142.153C105.945 139.062 108.461 136.547 111.552 136.547C114.644 136.547 117.16 139.062 117.16 142.153C117.16 145.247 114.645 147.763 111.552 147.763Z" fill="#A0AEC0"/>
<path d="M142.167 53.9672C141.198 52.7136 139.703 51.9792 138.118 51.9792H36.0971L31.8127 35.5045C31.2258 33.2491 29.1894 31.6747 26.8589 31.6747H5.88146C3.05481 31.6747 0.763184 33.9663 0.763184 36.793C0.763184 39.6196 3.05481 41.9112 5.88146 41.9112H22.9015L27.151 58.2529C27.1722 58.3443 27.196 58.4351 27.222 58.5245L43.0252 119.293C43.6121 121.548 45.6485 123.123 47.979 123.123H122.279C124.609 123.123 126.646 121.548 127.233 119.293L143.072 58.3853C143.47 56.8532 143.136 55.2215 142.167 53.9672ZM118.321 112.887H51.9365L38.7593 62.2165H131.499L118.321 112.887Z" fill="#A0AEC0"/>
<path d="M65.0354 36.0675C66.0345 37.0659 67.3441 37.5655 68.6537 37.5655C69.964 37.5655 71.2742 37.0652 72.274 36.0655C74.2722 34.0659 74.2715 30.825 72.272 28.8269L56.1753 12.7377C54.1758 10.7395 50.9355 10.7402 48.9367 12.7391C46.9385 14.7386 46.9392 17.9795 48.938 19.9777L65.0354 36.0675Z" fill="#A0AEC0"/>
<path d="M101.626 37.5647C102.936 37.5647 104.247 37.0645 105.247 36.0641L121.32 19.9769C123.318 17.9774 123.316 14.7365 121.316 12.739C119.317 10.7408 116.076 10.7429 114.079 12.7424L98.0057 28.8295C96.0076 30.8291 96.0096 34.07 98.0091 36.0681C99.0082 37.0659 100.317 37.5647 101.626 37.5647Z" fill="#A0AEC0"/>
<path d="M85.133 32.9692H85.1344C87.9604 32.9692 90.252 30.6783 90.2527 27.8523L90.2581 5.11965C90.2588 2.29299 87.9679 0.000682438 85.1412 0H85.1405C82.3139 0 80.0223 2.29094 80.0216 5.11692L80.0161 27.8496C80.0154 30.6763 82.3064 32.9686 85.133 32.9692Z" fill="#A0AEC0"/>
</svg>
